<?xml version="1.0" encoding="UTF-8"?>
<!DOCTYPE svg PUBLIC "-//W3C//DTD SVG 1.1//EN" "http://www.w3.org/Graphics/SVG/1.1/DTD/svg11.dtd">
<!-- Creator: CorelDRAW X8 -->
<svg xmlns="http://www.w3.org/2000/svg" xml:space="preserve" width="303px" height="104px" version="1.1" style="shape-rendering:geometricPrecision; text-rendering:geometricPrecision; image-rendering:optimizeQuality; fill-rule:evenodd; clip-rule:evenodd"
viewBox="0 0 3570886 1224554"
 xmlns:xlink="http://www.w3.org/1999/xlink">
 <defs>
  <style type="text/css">
   <![CDATA[
    .str1 {stroke:white;stroke-width:147083}
    .str2 {stroke:white;stroke-width:98064.4}
    .str0 {stroke:#00081F;stroke-width:49032.2}
    .fil13 {fill:none;fill-rule:nonzero}
    .fil1 {fill:#FEFEFE}
    .fil15 {fill:#492E61}
    .fil25 {fill:#96989A;fill-rule:nonzero}
    .fil14 {fill:#FFCC29;fill-rule:nonzero}
    .fil4 {fill:#201E1E;fill-rule:nonzero}
    .fil6 {fill:#00081F;fill-rule:nonzero}
    .fil11 {fill:#082328;fill-rule:nonzero}
    .fil9 {fill:#183644;fill-rule:nonzero}
    .fil12 {fill:#1D182D;fill-rule:nonzero}
    .fil8 {fill:#234456;fill-rule:nonzero}
    .fil21 {fill:#26AAE1;fill-rule:nonzero}
    .fil0 {fill:#492E61;fill-rule:nonzero}
    .fil5 {fill:#879590;fill-rule:nonzero}
    .fil22 {fill:#8AAA36;fill-rule:nonzero}
    .fil18 {fill:#9AC33D;fill-rule:nonzero}
    .fil19 {fill:#A8A190;fill-rule:nonzero}
    .fil7 {fill:#A8E0E0;fill-rule:nonzero}
    .fil20 {fill:#CDC6BA;fill-rule:nonzero}
    .fil16 {fill:#E6E6E8;fill-rule:nonzero}
    .fil17 {fill:white;fill-rule:nonzero}
    .fil10 {fill:url(#id6);fill-rule:nonzero}
    .fil3 {fill:url(#id7);fill-rule:nonzero}
    .fil2 {fill:url(#id8);fill-rule:nonzero}
    .fil23 {fill:url(#id9);fill-rule:nonzero}
    .fil24 {fill:url(#id10);fill-rule:nonzero}
   ]]>
  </style>
    <mask id="id0">
  <radialGradient id="id1" gradientUnits="userSpaceOnUse" cx="376025" cy="572584" r="0" fx="376025" fy="572584">
   <stop offset="0" style="stop-opacity:1; stop-color:white"/>
   <stop offset="0.0117647" style="stop-opacity:1; stop-color:white"/>
   <stop offset="1" style="stop-opacity:0; stop-color:white"/>
  </radialGradient>
     <rect style="fill:url(#id1)" x="370729" y="567289" width="244911" height="28824"/>
    </mask>
    <mask id="id2">
  <radialGradient id="id3" gradientUnits="userSpaceOnUse" cx="624438" cy="572584" r="0" fx="624438" fy="572584">
   <stop offset="0" style="stop-opacity:1; stop-color:white"/>
   <stop offset="0.0117647" style="stop-opacity:1; stop-color:white"/>
   <stop offset="1" style="stop-opacity:0; stop-color:white"/>
  </radialGradient>
     <rect style="fill:url(#id3)" x="619143" y="567289" width="244911" height="28824"/>
    </mask>
    <mask id="id4">
  <linearGradient id="id5" gradientUnits="userSpaceOnUse" x1="410493" y1="219376" x2="854420" y2="219376">
   <stop offset="0" style="stop-opacity:1; stop-color:white"/>
   <stop offset="0.988235" style="stop-opacity:0; stop-color:white"/>
   <stop offset="1" style="stop-opacity:1; stop-color:white"/>
  </linearGradient>
     <rect style="fill:url(#id5)" x="776635" y="202828" width="35231" height="33091"/>
    </mask>
  <linearGradient id="id6" gradientUnits="userSpaceOnUse" x1="410493" y1="219376" x2="854420" y2="219376">
   <stop offset="0" style="stop-opacity:1; stop-color:#FEFEFE"/>
   <stop offset="0.988235" style="stop-opacity:1; stop-color:#A9ACAF"/>
   <stop offset="1" style="stop-opacity:1; stop-color:#A9ACAF"/>
  </linearGradient>
  <radialGradient id="id7" gradientUnits="userSpaceOnUse" gradientTransform="matrix(3528.39 -0 -0 274.52 -2.14748E+09 -1.59107E+08)" cx="741598" cy="581701" r="117160" fx="741598" fy="581701">
   <stop offset="0" style="stop-opacity:1; stop-color:black"/>
   <stop offset="0.0117647" style="stop-opacity:1; stop-color:black"/>
   <stop offset="1" style="stop-opacity:1; stop-color:white"/>
  </radialGradient>
  <radialGradient id="id8" gradientUnits="userSpaceOnUse" gradientTransform="matrix(3528.39 -0 -0 274.52 -1.73966E+09 -1.59107E+08)" xlink:href="#id7" cx="493185" cy="581701" r="117160" fx="493185" fy="581701">
  </radialGradient>
  <linearGradient id="id9" gradientUnits="userSpaceOnUse" x1="319370" y1="986059" x2="617390" y2="986059">
   <stop offset="0" style="stop-opacity:1; stop-color:#BFBFBF"/>
   <stop offset="1" style="stop-opacity:1; stop-color:#F9F9FA"/>
  </linearGradient>
  <linearGradient id="id10" gradientUnits="userSpaceOnUse" xlink:href="#id9" x1="665892" y1="1.06073e+06" x2="1.19321e+06" y2="946076">
  </linearGradient>
 </defs>
 <g id="Layer_x0020_1">
  <metadata id="CorelCorpID_0Corel-Layer"/>
  <path class="fil0" d="M1521874 1174549c-38372,0 -70435,-7491 -96188,-22473 -25753,-14982 -45197,-36913 -58344,-65821 -13134,-28908 -20500,-64390 -22070,-106445l100121 -19708c1056,24711 4072,46517 9062,65446 5003,18915 12619,33494 22876,43751 10243,10243 23779,15371 40596,15371 18915,0 32327,-5642 40207,-16955 7880,-11299 11827,-25614 11827,-42959 0,-27852 -6310,-50728 -18915,-68587 -12620,-17873 -29436,-35745 -50464,-53618l-80414 -70950c-22598,-19457 -40610,-41138 -54007,-65042 -13398,-23919 -20097,-53480 -20097,-88697 0,-50464 14704,-89351 44140,-116688 29436,-27324 69643,-40985 120621,-40985 29964,0 54925,4586 74910,13787 19972,9200 35871,21944 47698,38247 11814,16288 20625,34814 26407,55578 5781,20764 9464,42709 11035,65835l-99343 17345c-1043,-19986 -3280,-37845 -6699,-53619 -3419,-15760 -9451,-28116 -18123,-37052 -8673,-8936 -21431,-13398 -38248,-13398 -17344,0 -30617,5643 -39804,16942 -9200,11299 -13800,25364 -13800,42180 0,21556 4461,39290 13397,53216 8937,13926 21820,28255 38637,42973l79622 70157c26281,22084 48754,47962 67405,77662 18665,29700 27991,65571 27991,107612 0,30492 -6699,57552 -20097,81206 -13412,23655 -32063,42181 -55981,55578 -23919,13412 -51895,20111 -83958,20111z"/>
  <path id="1" class="fil0" d="M1831702 1172978c-20499,0 -38108,-5392 -52812,-16163 -14718,-10785 -26017,-24447 -33911,-40999 -7880,-16553 -11827,-33772 -11827,-51645 0,-28380 5267,-52298 15774,-71742 10507,-19443 24432,-35745 41777,-48879 17345,-13134 37066,-24572 59136,-34300 22070,-9715 44418,-18526 67016,-26407l0 -39414c0,-13148 -917,-24183 -2765,-33119 -1835,-8937 -5254,-15761 -10243,-20500 -5003,-4725 -12745,-7088 -23265,-7088 -8937,0 -16164,2099 -21681,6296 -5518,4211 -9451,10118 -11827,17748 -2363,7616 -3809,16427 -4337,26406l-1570 27601 -101706 -3947c1585,-52562 14593,-91324 39026,-116284 24446,-24975 61624,-37455 111559,-37455 45725,0 78969,12619 99732,37844 20764,25225 31146,59400 31146,102498l0 210499c0,16817 389,32063 1181,45724 792,13662 1835,26017 3155,37052 1306,11035 2488,20764 3544,29172l-96188 0c-1571,-10507 -3544,-22473 -5907,-35870 -2363,-13398 -4072,-23266 -5128,-29561 -5254,18387 -15246,35078 -29964,50060 -14704,14982 -34690,22473 -59915,22473zm39429 -79635c6824,0 13259,-1710 19304,-5129 6046,-3405 11438,-7491 16164,-12216 4739,-4725 8144,-8936 10256,-12619l0 -126931c-11563,6838 -22473,13676 -32715,20500 -10257,6837 -19194,14328 -26810,22473 -7630,8144 -13411,16955 -17344,26406 -3947,9464 -5921,20499 -5921,33119 0,16816 3294,30089 9854,39818 6573,9714 15649,14579 27212,14579z"/>
  <path id="2" class="fil0" d="M2227476 1171394c-28908,0 -51631,-4725 -68198,-14190 -16552,-9465 -28240,-23126 -35078,-40999 -6838,-17873 -10243,-39151 -10243,-63861l0 -271206 -45738 0 0 -70950 45738 0 0 -136395 108001 0 0 136395 69379 0 0 70950 -69379 0 0 261755c0,15760 3419,26934 10257,33494 6824,6574 17081,9868 30743,9868 5781,0 11424,-264 16955,-793 5518,-528 10896,-1056 16150,-1584l0 81998c-8923,1057 -19305,2238 -31132,3544 -11827,1321 -24307,1974 -37455,1974z"/>
  <path id="3" class="fil0" d="M2364649 1165876l0 -638599 156895 0c28380,0 54008,2626 76870,7880 22862,5267 42570,14065 59122,26420 16567,12341 29311,29033 38247,50061 8937,21027 13398,47559 13398,79621 0,25753 -3544,47837 -10646,66224 -7088,18401 -17470,32980 -31131,43765 -13676,10771 -30757,17998 -51256,21681 25239,4197 46127,13009 62680,26406 16552,13398 28908,30882 37052,52424 8144,21555 12216,47572 12216,78051 0,30492 -3808,57426 -11424,80817 -7616,23390 -18915,42833 -33897,58344 -14982,15496 -33647,27198 -55981,35078 -22334,7880 -48490,11827 -78441,11827l-183704 0zm116688 -81998l44154 0c35204,0 59122,-8533 71742,-25614 12605,-17081 18915,-43501 18915,-79232 0,-25753 -3016,-46656 -9062,-62681 -6045,-16038 -16038,-27990 -29964,-35870 -13926,-7880 -32452,-11827 -55578,-11827l-40207 0 0 215224zm0 -295638l39415 0c23126,0 40999,-3419 53618,-10257 12606,-6824 21417,-17345 26407,-31535 4989,-14190 7491,-32062 7491,-53604 0,-22598 -3808,-40082 -11438,-52438 -7617,-12341 -19041,-20749 -34287,-25224 -15246,-4462 -34689,-6699 -58344,-6699l-22862 0 0 179757z"/>
  <path id="4" class="fil0" d="M2978816 1174549c-47308,0 -84096,-8673 -110378,-26017 -26281,-17345 -44418,-42042 -54396,-74105 -9993,-32062 -14982,-70435 -14982,-115103l0 -432047 113532 0 0 445445c0,19971 1307,38761 3934,56370 2626,17609 8811,31799 18526,42570 9728,10771 24307,16163 43764,16163 20500,0 35343,-5392 44544,-16163 9200,-10771 15246,-24961 18136,-42570 2891,-17609 4337,-36399 4337,-56370l0 -445445 112726 0 0 432047c0,44668 -4989,83041 -14968,115103 -9992,32063 -27990,56760 -54007,74105 -26018,17344 -62945,26017 -110768,26017z"/>
  <path id="5" class="fil0" d="M3410850 1174549c-38372,0 -70435,-7491 -96188,-22473 -25753,-14982 -45196,-36913 -58344,-65821 -13134,-28908 -20500,-64390 -22070,-106445l100121 -19708c1056,24711 4072,46517 9062,65446 5003,18915 12619,33494 22876,43751 10243,10243 23779,15371 40596,15371 18915,0 32327,-5642 40207,-16955 7880,-11299 11827,-25614 11827,-42959 0,-27852 -6310,-50728 -18915,-68587 -12619,-17873 -29436,-35745 -50464,-53618l-80414 -70950c-22598,-19457 -40610,-41138 -54007,-65042 -13398,-23919 -20097,-53480 -20097,-88697 0,-50464 14704,-89351 44140,-116688 29436,-27324 69643,-40985 120621,-40985 29964,0 54925,4586 74910,13787 19972,9200 35871,21944 47698,38247 11814,16288 20625,34814 26407,55578 5781,20764 9464,42709 11035,65835l-99343 17345c-1043,-19986 -3280,-37845 -6699,-53619 -3419,-15760 -9451,-28116 -18123,-37052 -8673,-8936 -21431,-13398 -38248,-13398 -17344,0 -30617,5643 -39803,16942 -9201,11299 -13801,25364 -13801,42180 0,21556 4461,39290 13397,53216 8937,13926 21820,28255 38637,42973l79622 70157c26281,22084 48754,47962 67405,77662 18665,29700 27991,65571 27991,107612 0,30492 -6699,57552 -20097,81206 -13412,23655 -32063,42181 -55981,55578 -23919,13412 -51895,20111 -83958,20111z"/>
  <g id="_2128013992048">
   <circle class="fil1" cx="617389" cy="370721" r="312244"/>
   <path class="fil2" style="mask:url(#id0)" d="M610345 581701c0,5045 -52465,9117 -117160,9117 -64709,0 -117160,-4072 -117160,-9117 0,-5031 52451,-9117 117160,-9117 64695,0 117160,4086 117160,9117z"/>
   <path class="fil3" style="mask:url(#id2)" d="M858758 581701c0,5045 -52451,9117 -117160,9117 -64709,0 -117160,-4072 -117160,-9117 0,-5031 52451,-9117 117160,-9117 64709,0 117160,4086 117160,9117z"/>
   <path class="fil4" d="M525359 581118l-54300 0c-3349,0 -6073,-2724 -6073,-6088l0 -75091 66460 0 0 75091c0,3364 -2724,6088 -6087,6088z"/>
   <polygon class="fil4" points="739263,562439 521940,562439 521940,534170 739263,534170 "/>
   <path class="fil4" d="M776732 581118l-54299 0c-3350,0 -6074,-2724 -6074,-6088l0 -75091 66460 0 0 75091c0,3364 -2724,6088 -6087,6088z"/>
   <path class="fil0" d="M791269 547373l-334983 0c-8450,0 -15302,-6852 -15302,-15302l0 -330897c0,-10702 8686,-19388 19388,-19388l326811 0c10716,0 19388,8686 19388,19388l0 330897c0,8450 -6852,15302 -15302,15302z"/>
   <path class="fil0" d="M440984 517562l0 3127c0,14732 11952,26684 26698,26684l312205 0c14732,0 26684,-11952 26684,-26684l0 -3127 -365587 0z"/>
   <path class="fil5" d="M772757 181786l-297959 0c-18679,0 -33814,15135 -33814,33814l0 143733c2071,1571 3989,3238 5809,5003 7102,2585 13745,6310 19513,11258 2182,1876 4434,3655 6699,5392 10215,4253 20305,8937 30756,13884 1751,834 3433,1724 5087,2669 6490,1362 12967,2585 19471,3627 35579,834 70435,5559 105903,8325 7491,-1126 15288,-1251 23668,-1042 -22709,-570 -2515,-306 2321,-459 4225,-139 8436,-347 12647,-625 8575,-542 17123,-1362 25656,-2363 9006,-1056 17998,-2335 26962,-3780 28074,-9493 54494,-22459 81095,-35426l0 -150196c0,-18679 -15135,-33814 -33814,-33814z"/>
   <polygon class="fil6" points="466626,375677 473964,375677 473964,194683 466626,194683 "/>
   <polygon class="fil6" points="779150,375677 786488,375677 786488,194683 779150,194683 "/>
   <path class="fil7" d="M739624 331801l-221186 0c-7088,0 -12828,-5740 -12828,-12814l0 -68295c0,-7088 5740,-12828 12828,-12828l221186 0c7088,0 12828,5740 12828,12828l0 68295c0,7074 -5740,12814 -12828,12814z"/>
   <path class="fil8" d="M581076 405044c6393,361 12786,583 19179,806 278,14 473,28 723,28 820,13 1640,13 2474,27 1028,14 2057,42 3099,56l0 -46433c0,-11841 -9604,-21459 -21459,-21459l-41694 0c-11841,0 -21458,9618 -21458,21459l0 37524c19429,4448 39192,6852 59136,7992z"/>
   <path class="fil9" d="M518410 396246c20541,4990 41513,7589 62666,8798 3085,166 6171,319 9256,444l0 -58260c0,-11841 -9604,-21459 -21459,-21459l-41694 0c-11841,0 -21458,9618 -21458,21459l0 44432c4197,1640 8422,3155 12689,4586z"/>
   <path class="fil8" d="M654054 406920c1126,42 1988,69 2738,97 765,-28 1529,-42 2280,-42 6212,-55 12438,-250 18637,-625 11744,-695 23460,-1973 35037,-4016 2724,-473 5434,-1043 8158,-1543 1806,-334 2793,-500 3224,-528 403,-139 792,-292 1195,-431l0 -40304c0,-11841 -9617,-21459 -21458,-21459l-41694 0c-11855,0 -21459,9618 -21459,21459l0 47100c4448,97 8895,181 13342,292z"/>
   <path class="fil9" d="M659072 406975c6212,-55 12438,-250 18637,-625 11744,-695 23460,-1973 35037,-4016 2724,-473 5434,-1043 8158,-1543 1806,-334 2793,-500 3224,-528 3169,-1098 6296,-2432 9034,-3350 2974,-1014 5906,-2084 8825,-3210l0 -40638c0,-11855 -9617,-21458 -21458,-21458l-41695 0c-11855,0 -21458,9603 -21458,21458l0 53938c570,-14 1140,-28 1696,-28z"/>
   <path class="fil10" style="mask:url(#id4)" d="M806571 230624l0 -487c0,-12161 -10785,-22014 -24099,-22014l-542 0c13620,0 24641,10076 24641,22501z"/>
   <path class="fil6" d="M733162 396913c9172,-3099 18067,-6838 26753,-11049l0 -46072c0,-11841 -9603,-21444 -21458,-21444l-41680 0c-11855,0 -21459,9603 -21459,21444l0 58553 53952 0c1348,-514 2669,-1029 3892,-1432z"/>
   <path class="fil6" d="M504929 391354c1667,667 3349,1279 5017,1904 17970,2404 36274,1696 54299,3989l0 -57455c0,-11841 -9603,-21444 -21458,-21444l-41680 0c-11855,0 -21459,9603 -21459,21444l0 41444c8464,1682 16567,4837 23696,9548 528,195 1057,376 1585,570z"/>
   <g>
    <g>
     <path class="fil11" d="M638155 396969c-167,-1515 -250,-3030 -250,-4573 0,-25822 23821,-46808 53118,-46808 29283,0 53118,20986 53118,46808 0,1543 -97,3058 -264,4573l-7157 0c194,-1501 305,-3030 305,-4573 0,-21889 -20638,-39706 -46002,-39706l0 0c-25378,0 -46016,17817 -46016,39706 0,1543 111,3072 305,4573l-7157 0z"/>
    </g>
    <g>
     <polygon class="fil11" points="691023,396802 650969,367450 655166,361710 691023,387977 726866,361710 731063,367450 "/>
    </g>
   </g>
   <path class="fil0" d="M440984 215600c0,0 931,-18137 35607,-18137 34675,0 269149,0 295388,0 26225,0 28380,11924 34592,18137 0,0 -459,-41847 -24641,-41847 -24183,0 -279322,0 -300461,0 -21153,0 -40485,8033 -40485,41847z"/>
   <path class="fil12" d="M546692 439594c0,0 71617,58274 158882,0l-158882 0z"/>
   <path class="fil6" d="M440734 341029c0,0 9756,55940 182925,55940 173156,0 182912,-55940 182912,-55940l0 30576c0,0 -38497,40707 -180257,40707 -141760,0 -185024,-47725 -185024,-47725l-556 -23558z"/>
   <path class="fil12" d="M537047 475743l-96063 0 0 -36149 96063 0c9979,0 18067,8089 18067,18068 0,9978 -8088,18081 -18067,18081z"/>
   <line class="fil13 str0" x1="440984" y1="439594" x2="806502" y2= "439594" />
   <line class="fil13 str0" x1="440984" y1="517826" x2="806502" y2= "517826" />
   <path class="fil12" d="M677528 510919l-107793 0c-3016,0 -5490,-2460 -5490,-5490 0,-3016 2474,-5490 5490,-5490l107793 0c3016,0 5490,2474 5490,5490 0,3030 -2474,5490 -5490,5490z"/>
   <path class="fil14" d="M445070 448822c0,12856 10423,23280 23279,23280 12856,0 23265,-10424 23265,-23280 0,-3280 -667,-6393 -1890,-9228l-42764 0c-1209,2835 -1890,5948 -1890,9228z"/>
   <path class="fil14" d="M495464 439594c1710,11188 11355,19749 23015,19749 11633,0 21278,-8547 23001,-19707 -417,-14 -847,-42 -1264,-42l-44752 0z"/>
   <rect class="fil15" x="408521" y="255328" width="30252" height="75917" rx="5438" ry="7373"/>
   <rect class="fil15" x="808731" y="255328" width="30252" height="75917" rx="5438" ry="7373"/>
   <path class="fil12" d="M710522 475743l96049 0 0 -36149 -96049 0c-9979,0 -18081,8089 -18081,18068 0,9978 8102,18081 18081,18081z"/>
   <path class="fil14" d="M802499 448822c0,12856 -10424,23280 -23279,23280 -12856,0 -23279,-10424 -23279,-23280 0,-3280 681,-6393 1904,-9228l42750 0c1223,2835 1904,5948 1904,9228z"/>
   <path class="fil14" d="M752091 439594c-1696,11188 -11355,19749 -23001,19749 -11647,0 -21292,-8547 -23002,-19707 417,-14 834,-42 1265,-42l44738 0z"/>
   <polygon class="fil16" points="0,1221594 319376,1162666 395398,750520 173572,810963 "/>
   <polygon class="fil16" points="319376,1162666 617391,1221594 592778,810310 395398,750520 "/>
   <polygon class="fil16" points="617391,1221594 908291,1162666 783848,750520 592778,810310 "/>
   <polygon class="fil16" points="908291,1162666 1234783,1221594 1011261,810310 783848,750520 "/>
   <polygon class="fil17" points="593390,820511 787086,761236 904844,1151242 616780,1211351 "/>
   <polygon class="fil17" points="904844,1151242 787086,761236 1002366,818301 1214047,1207793 "/>
   <polygon class="fil17" points="321253,1152465 393342,761667 593390,820511 616780,1211351 "/>
   <polygon class="fil17" points="183079,818732 393342,761667 321253,1152465 18498,1208112 "/>
   <g>
    <polygon class="fil18" points="31813,1196063 87502,1057569 325283,1016320 300002,1146947 "/>
   </g>
   <g>
    <polygon class="fil19" points="94354,1048396 127042,966871 224147,940353 197699,1028105 "/>
   </g>
   <g>
    <path class="fil17" d="M163190 1030051l-5559 11925 -6198 -2919 5559 -11924 2279 -1877 3919 4795zm-6198 -2918l695 -1488 1584 -389 -2279 1877zm53341 -7478l-49422 12272 -1640 -6671 49422 -12272 1640 6671z"/>
   </g>
   <g id="_2128014006992">
    <polygon class="fil20" points="209513,1028411 233556,940353 342100,914823 325283,1005841 "/>
   </g>
   <path class="fil21" d="M673108 796120c-9075,11577 -18567,30270 -23348,60095 -4642,29033 -25100,49908 -50658,59956 -33203,13064 -75022,7824 -101859,-21653 -47489,-52160 -72534,-78052 -114047,-84208 -41499,-6157 -68740,11035 -79622,4655 -10896,-6393 5295,-26878 17470,-33827l-106000 28894c0,0 -21945,45696 17553,65334 39498,19638 107195,-20166 142205,-13203 35009,6949 74020,81470 156338,95716 25503,4405 49394,2571 70213,-4211 46364,-15094 77509,-54759 77245,-104819 -153,-28894 9215,-48059 20528,-60693l-26018 7964z"/>
   <g id="_2128014008400">
    <polygon class="fil22" points="134310,958365 193210,942647 215002,873560 162551,883385 "/>
   </g>
   <polygon class="fil17" points="207289,899479 196045,902704 190542,919201 201855,916685 "/>
   <polygon class="fil17" points="200771,921827 189527,925052 184037,941549 195350,939033 "/>
   <g id="_2128014005072">
    <polygon class="fil19" points="626759,1199496 729048,1177884 717401,1078041 619420,1097470 "/>
   </g>
   <g id="_2128014006512">
    <polygon class="fil20" points="741153,1174938 889431,1144001 834756,955085 711967,984507 "/>
   </g>
   <g id="_2128014005360">
    <polygon class="fil18" points="716137,1072954 704838,986300 612888,1004076 619420,1088339 "/>
   </g>
   <g id="_2128014005392">
    <path class="fil19" d="M321141 879744c-20471,5379 -41652,10952 -61735,10952 0,0 0,0 0,0 -12716,0 -23863,-2349 -33132,-6949 -1126,-570 -2210,-1154 -3253,-1737l-15732 58343 149737 -36343 6657 -32785c-11507,403 -26587,4322 -42542,8519z"/>
   </g>
   <g id="_2128014005104">
    <polygon class="fil20" points="788670,766475 898506,795967 933210,873560 815785,856298 "/>
   </g>
   <g id="_2128014002672">
    <polygon class="fil19" points="908291,799247 954196,894198 1042962,909347 996960,820024 "/>
   </g>
   <g id="_2128014002640">
    <polygon class="fil20" points="828919,865888 933210,880314 958449,936976 849280,928248 "/>
   </g>
   <g>
    <path class="fil17" d="M956781 864206l18554 33216 -5976 3364 -18554 -33217 3961 -4975 2015 1612zm-2015 -1612l1334 389 681 1223 -2015 -1612zm-20583 -6073l20583 6073 -1946 6588 -20583 -6074 1946 -6587z"/>
   </g>
   <g>
    <polygon class="fil22" points="342100,1146947 503900,1180344 516005,1004520 459121,984507 369743,993750 "/>
   </g>
   <path class="fil22" d="M410936 900133c-7546,-6894 -14898,-13579 -21611,-18777l-10701 65224 137381 47795 1321 -29269c-47948,-11730 -81443,-42250 -106390,-64973z"/>
   <g>
    <polygon class="fil20" points="374385,981450 439135,978503 378624,962298 "/>
   </g>
   <g>
    <polygon class="fil18" points="904844,986509 958449,1120750 1176925,1165932 1105906,1028411 "/>
   </g>
   <g>
    <path class="fil17" d="M1032622 1035749l-3335 13898 0 0 -2085 -458 -2071 -417 -2057 -334 -2043 -278 -2029 -222 -2015 -139 -1974 -111 -1959 -14 -1946 0 -1862 83 -1835 139 -1793 181 -1737 236 -1723 306 -1640 333 -1585 390 -1501 417 -1417 472 -1376 514 -1306 556 -1196 570 -1125 612 -1029 611 -959 681 -889 653 -737 667 -681 667 -597 709 -501 667 -431 681 -361 695 -278 667 -13398 -4920 751 -1834 917 -1723 1015 -1654 1167 -1557 1265 -1459 1348 -1362 1487 -1307 1529 -1181 1598 -1098 1696 -1028 1737 -945 1834 -876 1863 -778 1932 -737 2001 -639 2029 -584 2085 -500 2112 -445 2168 -361 2210 -320 2265 -236 2280 -167 2335 -83 2334 -28 2349 42 2418 111 2405 194 2446 250 2460 334 2474 417 2487 472 2474 570 0 0zm40138 44641l-13398 -4920 0 0 209 -681 152 -681 84 -653 28 -695 -28 -723 -84 -709 -166 -722 -237 -807 -319 -861 -389 -876 -487 -903 -528 -862 -667 -945 -737 -959 -834 -959 -917 -973 -1001 -959 -1097 -973 -1154 -931 -1265 -931 -1362 -931 -1417 -903 -1460 -876 -1584 -848 -1626 -820 -1682 -778 -1793 -751 -1834 -722 -1876 -653 -1946 -626 -2001 -570 -2057 -542 3335 -13898 2446 626 2419 681 2362 764 2293 820 2224 862 2154 917 2154 973 2043 1042 1974 1070 1932 1126 1834 1181 1751 1210 1710 1264 1626 1321 1543 1362 1473 1403 1362 1446 1306 1487 1182 1542 1111 1557 1029 1696 876 1681 778 1710 653 1751 542 1807 389 1890 250 1904 84 1918 -84 1918 -250 1931 -431 1904 -597 1877 0 0zm-61471 18526l3335 -13898 0 0 2085 458 2071 417 2057 334 2043 278 2029 222 2015 139 1974 111 1959 14 1932 0 1876 -97 1876 -125 1752 -181 1751 -236 1695 -306 1654 -333 1585 -389 1501 -417 1417 -473 1390 -514 1292 -556 1210 -570 1125 -598 1029 -639 945 -653 862 -667 764 -667 681 -681 598 -695 500 -681 445 -681 333 -667 292 -695 13398 4920 -737 1806 -917 1752 -1029 1653 -1167 1571 -1265 1445 -1348 1376 -1459 1279 -1529 1195 -1612 1098 -1696 1028 -1765 959 -1820 876 -1877 778 -1890 709 -2001 667 -2057 584 -2085 500 -2098 445 -2168 361 -2224 320 -2279 236 -2266 153 -2321 97 -2348 28 -2349 -41 -2418 -112 -2405 -194 -2446 -250 -2460 -334 -2474 -417 -2487 -472 -2474 -570 0 0zm-40138 -44655l13398 4920 -208 681 -153 681 -84 667 -27 695 27 695 84 723 166 750 237 793 319 861 390 876 472 889 542 862 681 973 723 945 834 959 917 973 987 945 1112 973 1167 959 1251 917 1362 931 1417 903 1460 876 1584 848 1626 820 1682 778 1793 751 1834 722 1876 654 1946 625 2001 570 2057 542 -3335 13898 -2446 -626 -2418 -681 -2363 -764 -2293 -820 -2224 -862 -2154 -917 -2154 -973 -2043 -1042 -1974 -1070 -1932 -1126 -1834 -1181 -1751 -1210 -1724 -1278 -1612 -1320 -1529 -1335 -1487 -1417 -1362 -1446 -1306 -1487 -1195 -1556 -1098 -1557 -1015 -1668 -889 -1695 -779 -1710 -653 -1751 -542 -1820 -389 -1891 -250 -1890 -84 -1918 84 -1918 250 -1945 431 -1904 597 -1877z"/>
   </g>
   <path class="fil21" d="M992693 1060293c2891,-7936 18346,-11215 34509,-7324 16163,3877 26920,13467 24016,21403 -2891,7936 -18346,11216 -34509,7324 -16163,-3891 -26920,-13467 -24016,-21403z"/>
   <g>
    <polygon class="fil17" points="209832,1035054 188888,1104989 176477,1094482 332955,1069299 336096,1068799 338736,1069674 546081,1138831 545052,1138678 614334,1132424 609219,1133480 862650,1020837 866555,1019099 870836,1020142 985800,1048313 979643,1064852 864679,1036680 872865,1035986 619448,1148629 616599,1149894 614334,1149685 545052,1143431 544357,1143376 544038,1143292 331329,1085866 337096,1086241 180619,1111424 164274,1114065 168208,1100917 189152,1030968 "/>
   </g>
   <g>
    <polygon class="fil17" points="1139804,1087839 1065950,1074692 1067562,1065686 1141416,1078833 "/>
   </g>
   <g>
    <polygon class="fil17" points="1080682,968900 1084323,977294 1078458,979977 1073010,982701 1067979,985452 1063379,988232 1059154,991026 1055290,993819 1051788,996626 1048605,999406 1045756,1002158 1043199,1004868 1040933,1007564 1038918,1010191 1037167,1012748 1035652,1015264 1034346,1017696 1033248,1020058 1032317,1022324 1031566,1024520 1030941,1026563 1030482,1028536 1030121,1030371 1029884,1032094 1029731,1033679 1029662,1035138 1029634,1036416 1029662,1037556 1029731,1038529 1029815,1039335 1029898,1039974 1029954,1040377 1029982,1040516 1029982,1040516 1021115,1042684 1021059,1042462 1020948,1041934 1020837,1041225 1020726,1040363 1020614,1039252 1020545,1037973 1020489,1036472 1020517,1034804 1020614,1032984 1020823,1031010 1021115,1028870 1021559,1026591 1022129,1024200 1022866,1021685 1023783,1019072 1024881,1016362 1026201,1013582 1027730,1010733 1029495,1007800 1031524,1004826 1033817,1001810 1036389,998781 1039252,995709 1042434,992652 1045923,989594 1049759,986536 1053956,983493 1058514,980477 1063448,977503 1068785,974584 1074511,971721 "/>
   </g>
   <g>
    <path class="fil18" d="M690689 848807c84,14329 -2279,28032 -6823,40777l131919 -33286 -27115 -89823 -75813 23321c-11841,11007 -22320,29186 -22168,59011z"/>
   </g>
   <g>
    <path class="fil17" d="M802999 808920l113352 16066 -972 6810 -113353 -16066 -542 -6685 1515 -125zm-1515 125l737 -236 778 111 -1515 125zm-116090 36635l116090 -36635 2057 6560 -116090 36635 -2057 -6560z"/>
   </g>
   <path class="fil13 str1" d="M752744 828030c0,0 -16024,-19221 -60818,-14677"/>
   <line class="fil13 str2" x1="719319" y1="838578" x2="705644" y2= "911543" />
   <g>
    <path class="fil17" d="M198074 1126615l-150751 25530 -751 -4503 150752 -25530 1612 4169 -862 334zm862 -334l-389 250 -473 84 862 -334zm50617 -32633l-50617 32633 -2474 -3836 50617 -32632 2474 3835z"/>
   </g>
   <g>
    <polygon class="fil17" points="246064,1023408 250567,1024937 249511,1027702 248218,1030301 246745,1032747 245091,1035054 243285,1037209 241339,1039210 239268,1041100 237086,1042823 234821,1044436 232472,1045923 230095,1047299 227649,1048549 225189,1049717 222702,1050759 220228,1051718 217782,1052580 215350,1053372 212973,1054067 210652,1054678 208415,1055234 206274,1055721 204231,1056138 202313,1056499 200521,1056791 198908,1057055 197435,1057263 196143,1057416 195059,1057555 194169,1057639 193516,1057694 193141,1057722 192960,1057736 192654,1052983 192752,1052969 193127,1052941 193724,1052886 194558,1052802 195587,1052691 196796,1052538 198186,1052330 199770,1052093 201479,1051802 203314,1051468 205274,1051051 207331,1050592 209485,1050064 211695,1049481 213960,1048813 216253,1048077 218588,1047243 220923,1046340 223244,1045353 225537,1044269 227816,1043101 230026,1041837 232180,1040489 234223,1039015 236183,1037459 238031,1035791 239755,1034012 241339,1032136 242770,1030135 244049,1028022 245147,1025784 "/>
   </g>
   <line class="fil13 str2" x1="1025062" y1="1093899" x2="1047396" y2= "1148907" />
   <g>
    <path class="fil17" d="M1096094 1141638l-58691 -13814 1056 -4448 58692 13815 1487 1140 -2544 3307zm1057 -4447l1000 236 487 904 -1487 -1140zm9562 25906l-12106 -22598 4031 -2168 12105 22598 -4030 2168z"/>
   </g>
   <g>
    <g>
     <path class="fil20" d="M312511 806404c2918,-347 6935,-1209 11132,-2098 10298,-2182 24377,-5170 41138,-5170 5128,0 10257,278 15330,834l7185 -31827 -54717 14524c-12466,9228 -18776,20291 -20068,23737z"/>
     <path class="fil20" d="M199520 818009l-11952 3169 -19777 55008 40054 -6754c-12981,-15872 -12481,-36274 -8325,-51423z"/>
    </g>
   </g>
   <polygon class="fil20" points="850906,934794 860940,971137 1101473,1020239 1065158,955085 "/>
   <polygon class="fil20" points="955405,899104 968719,938964 1060710,948789 1042962,913919 "/>
   <polygon class="fil20" points="711967,977517 831532,948789 807725,865888 686423,895504 "/>
   <polygon class="fil17" points="762473,1170491 721543,944551 612888,878313 608177,815994 616780,813353 624062,872990 731869,938060 792784,1164167 "/>
   <g>
    <path class="fil19" d="M647967 940075c-11118,9076 -24030,16205 -38081,21264l3002 36066 90435 -17929 -22307 -82693c-7227,16594 -18359,31326 -33049,43292z"/>
   </g>
   <path class="fil19" d="M637766 854950c3224,-20235 8603,-35787 14718,-47740l-59094 18068 4961 80025c19485,-9076 35510,-26004 39415,-50353z"/>
   <path class="fil19" d="M506986 888681c14328,15746 34355,24432 56384,24432 0,0 0,0 0,0 7852,0 15913,-1195 23696,-3516l-3683 -85792 -174712 -52062 -4586 33119c35134,10840 60303,37038 102901,83819z"/>
   <polygon class="fil19" points="867347,982186 900327,986509 910014,1012387 896700,1022699 897909,1028411 881565,1025645 "/>
   <polygon class="fil19" points="911126,1016945 902148,1023922 903357,1028411 916671,1032025 "/>
   <polygon class="fil19" points="883177,1037320 919895,1044797 961854,1152187 916671,1143806 "/>
   <polygon class="fil19" points="961854,1128616 971540,1152187 1191449,1195076 1178941,1172811 "/>
   <polygon class="fil17" points="1073330,1148907 1082502,1178134 1089159,1180094 1079472,1148907 "/>
   <g>
    <polygon class="fil20" points="512378,1182637 605578,1199496 602354,1070995 521245,1055359 "/>
   </g>
   <path class="fil20" d="M558533 970095c-9812,0 -19888,-875 -29922,-2613 -1293,-222 -2571,-472 -3836,-722l-2710 78037 78677 16705 -5865 -95660c-11633,2794 -23836,4253 -36344,4253z"/>
   <polygon class="fil23" points="319376,1162666 617391,1221594 592778,810310 395398,750520 "/>
   <polygon class="fil24" points="908291,1162666 1234783,1221594 1011261,810310 783848,750520 "/>
   <path class="fil15" d="M378999 704824c764,1612 1932,3502 3085,5503l2877 5712c1056,1863 2001,3475 3058,5560l18331 33952c3697,8701 34481,65224 41027,76829 723,1292 973,2168 1459,3210 834,1779 1793,3572 3030,5490 5142,8047 24322,45377 30103,56593 1557,3015 4128,8144 5907,11243l27601 51242c1251,2252 2043,4003 3197,6171l5893 11271c16886,29728 32632,61235 48809,90851l6004 11244c6282,11466 33550,61346 36344,68920 4072,-2196 5448,-6310 7532,-10437l15663 -28867c1140,-2140 1849,-3905 3141,-6184l54342 -101817c806,-1431 861,-1181 1723,-2863 584,-1126 764,-1737 1251,-2682l57663 -107891c889,-1792 2098,-3947 3224,-6031 2210,-4114 4003,-7436 6351,-11605 806,-1432 570,-1056 1279,-2613l26559 -49185c1306,-2404 1654,-3711 3210,-6240l24544 -46322c2307,-3767 4031,-6977 6310,-11689l12467 -23348c1598,-2544 1584,-3141 2946,-5740l34467 -63917c1195,-2099 1640,-3794 2766,-5754l12550 -23418c903,-1557 861,-1292 1681,-2932 46211,-92103 91574,-140384 91574,-259504 0,-204106 -165469,-369576 -369576,-369576 -204120,0 -369576,165470 -369576,369576 0,125054 74383,228914 131184,335248zm238392 -646341c172447,0 312247,139786 312247,312233 0,172446 -139800,312246 -312247,312246 -172446,0 -312246,-139800 -312246,-312246 0,-172447 139800,-312233 312246,-312233z"/>
   <polygon class="fil25" points="0,1221594 318834,1159720 319946,1159720 617405,1218536 907707,1159720 908819,1159720 1234783,1221594 1234255,1224554 908318,1165710 617975,1224540 616808,1224554 319335,1165724 542,1224554 "/>
  </g>
 </g>
</svg>
